<?xml version="1.0" encoding="iso-8859-1"?>
<!-- Generator: Adobe Illustrator 19.0.0, SVG Export Plug-In . SVG Version: 6.00 Build 0)  -->
<svg version="1.1" id="Capa_1" xmlns="http://www.w3.org/2000/svg" xmlns:xlink="http://www.w3.org/1999/xlink" x="0px" y="0px"
	 viewBox="0 0 512.277 512.277" style="enable-background:new 0 0 512.277 512.277;" xml:space="preserve">
<path style="fill:#FFD15C;" d="M257.344,256.139c0,0-8.533,36.267-18.133,49.067c-9.6,13.867-12.8,13.867-12.8,13.867
	s-10.667,38.4-12.8,48c-2.133,9.6-8.533,44.8-8.533,44.8l-66.133-3.2l-19.2-82.133c0,0,7.467-35.2,6.4-40.533
	c-1.067-5.333-3.2-20.267-3.2-20.267s-4.267-43.733,0-66.133c4.267-22.4,18.133-68.267,52.267-73.6
	c35.2-5.333,67.2,14.933,75.733,23.467c7.467,8.533,11.733,32,11.733,32L257.344,256.139z"/>
<path style="fill:#344A5E;" d="M336.277,512.139c2.133-17.067,2.133-32,0-39.467c-8.533-33.067-30.933-67.2-41.6-76.8
	c-10.667-9.6-25.6-8.533-36.267-12.8c-11.733-4.267-32-10.667-32-10.667l-3.2,3.2l-18.133,6.4l-7.467,7.467c0,0,0-6.4-2.133-9.6
	c-3.2-3.2-7.467-8.533-7.467-8.533l-49.067-4.267l-21.333-41.6l-16,9.6c0,0-58.667,23.467-74.667,40.533s-22.4,27.733-23.467,35.2
	c-1.067,8.533,0,44.8-3.2,59.733c-1.067,5.333,1.067,21.333,4.267,41.6H336.277z"/>
<g>
	<path style="fill:#FFD15C;" d="M125.077,242.272c1.067,17.067-4.267,30.933-10.667,30.933c-6.4,0-12.8-13.867-13.867-30.933
		c-1.067-17.067,4.267-30.933,10.667-30.933C118.677,210.272,125.077,224.139,125.077,242.272z"/>
	<path style="fill:#FFD15C;" d="M239.211,251.872c-1.067,17.067,4.267,30.933,10.667,30.933s12.8-13.867,13.867-30.933
		s-4.267-30.933-10.667-30.933S240.277,233.739,239.211,251.872z"/>
</g>
<path style="fill:#415A6B;" d="M120.811,251.872l3.2-1.067c0,0-4.267-38.4,4.267-49.067c7.467-10.667,17.067-26.667,17.067-30.933
	s-6.4-19.2,8.533-27.733c14.933-8.533,66.133-5.333,84.267,4.267c5.333,3.2,9.6,6.4,11.733,10.667c4.267,6.4,5.333,14.933,3.2,22.4
	c-1.067,3.2-1.067,8.533,2.133,12.8c6.4,8.533,3.2,48,3.2,53.333c0,5.333-1.067,9.6-1.067,9.6h2.133c0,0,2.133-28.8,3.2-38.4
	s5.333-29.867,2.133-45.867c-5.333-28.8-28.8-49.067-62.933-56.533s-62.933,14.933-74.667,32s-12.8,38.4-13.867,48
	c-1.067,9.6,0,18.133,0,18.133S119.744,222.005,120.811,251.872z"/>
<path style="fill:#F7B64C;" d="M125.077,286.005c1.067,5.333-6.4,40.533-6.4,40.533l3.2,11.733c7.467,1.067,20.267,3.2,39.467,5.333
	c39.467,5.333,64-24.533,64-24.533C181.611,357.472,125.077,286.005,125.077,286.005z"/>
<g>
	<path style="fill:#E8EAE9;" d="M218.944,343.605c0,0-7.467,32-22.4,44.8c0,0,12.8-4.267,19.2-7.467c0,0,7.467,2.133,9.6,7.467
		c2.133,4.267,8.533,17.067,13.867,20.267c5.333,3.2,7.467,6.4,7.467,6.4s-4.267-7.467-7.467-12.8
		c-3.2-6.4-10.667-21.333-11.733-26.667C227.477,370.272,222.144,348.939,218.944,343.605z"/>
	<path style="fill:#E8EAE9;" d="M122.944,304.139c0,0,5.333,13.867,12.8,20.267c7.467,6.4,51.2,48,51.2,48s-16,13.867-20.267,22.4
		s-8.533,18.133-8.533,18.133s-36.267-43.733-44.8-57.6c-4.267-7.467-7.467-12.8-9.6-14.933s-2.133-5.333,0-7.467
		c2.133-4.267,6.4-11.733,7.467-16C113.344,308.405,119.744,304.139,122.944,304.139z"/>
</g>
<path style="fill:#F3705A;" d="M512.277,32.139v119.467c0,18.133-14.933,32-32,32h-97.067l-76.8,58.667v-58.667h-4.267
	c-18.133,0-32-13.867-32-32V32.139c0-17.067,13.867-32,32-32h178.133C498.411,0.139,512.277,14.005,512.277,32.139z"/>
<g>
	<path style="fill:#FFFFFF;" d="M414.144,94.005l2.133-14.933l-14.933-5.333c0-2.133-1.067-5.333-2.133-7.467l9.6-12.8
		l-8.533-10.667l-13.867,6.4c-2.133-1.067-4.267-3.2-6.4-3.2l-2.133-16l-13.867-1.067l-7.467,13.867
		c-2.133,0-5.333,1.067-7.467,2.133l-12.8-9.6l-10.667,8.533l5.333,14.933c-1.067,2.133-3.2,4.267-4.267,6.4l-16,2.133
		l-1.067,13.867l14.933,5.333c0,2.133,1.067,5.333,2.133,7.467l-9.6,12.8l8.533,10.667l13.867-6.4c2.133,1.067,4.267,3.2,6.4,3.2
		l2.133,16l13.867,1.067l5.333-14.933c2.133,0,5.333-1.067,7.467-2.133l12.8,9.6l10.667-8.533l-3.2-12.8
		c1.067-2.133,3.2-4.267,4.267-6.4L414.144,94.005z M360.811,102.539c-11.733-1.067-20.267-11.733-19.2-23.467
		s11.733-20.267,23.467-19.2s20.267,11.733,19.2,23.467C383.211,95.072,372.544,103.605,360.811,102.539z"/>
	<path style="fill:#FFFFFF;" d="M471.744,117.472l-2.133-8.533h-9.6c-1.067-1.067-2.133-3.2-3.2-4.267l2.133-8.533l-7.467-4.267
		l-6.4,7.467c-1.067,0-3.2,0-5.333,0l-5.333-8.533l-8.533,2.133v9.6c-1.067,1.067-2.133,2.133-4.267,3.2l-9.6-2.133l-4.267,7.467
		l7.467,6.4c0,1.067,0,3.2,0,5.333l-9.6,4.267l2.133,8.533h9.6c1.067,1.067,2.133,2.133,3.2,4.267l-2.133,9.6l7.467,4.267l6.4-7.467
		c1.067,0,3.2,0,5.333,0l5.333,8.533l8.533-2.133v-9.6c1.067-1.067,2.133-2.133,4.267-3.2l9.6,2.133l4.267-7.467l-7.467-6.4
		c0-1.067,0-3.2,0-5.333L471.744,117.472z M442.944,135.605c-7.467,2.133-14.933-2.133-17.067-9.6
		c-2.133-7.467,2.133-14.933,9.6-17.067c7.467-2.133,14.933,2.133,17.067,9.6C453.611,126.005,449.344,133.472,442.944,135.605z"/>
</g>
<g>
</g>
<g>
</g>
<g>
</g>
<g>
</g>
<g>
</g>
<g>
</g>
<g>
</g>
<g>
</g>
<g>
</g>
<g>
</g>
<g>
</g>
<g>
</g>
<g>
</g>
<g>
</g>
<g>
</g>
</svg>
